HIERARCHY
ROOT Hips
{
  OFFSET 3.13124 94.3669 -3.18751
  CHANNELS  6 Xposition Yposition Zposition Zrotation Xrotation Yrotation
  JOINT LeftUpLeg
  {
    OFFSET 8.64259 1.95398 -2.38835
    CHANNELS 3 Zrotation Xrotation Yrotation
    JOINT LeftLeg
    {
      OFFSET 43.7702 0 0
      CHANNELS 3 Zrotation Xrotation Yrotation
      JOINT LeftFoot
      {
        OFFSET 40.6238 0 0
        CHANNELS 3 Zrotation Xrotation Yrotation
        JOINT LeftToeBase
        {
          OFFSET 12.7242 0 0
          CHANNELS 3 Zrotation Xrotation Yrotation
          End Site
          {
            OFFSET 0 0 0
          }
        }
      }
    }
  }
  JOINT RightUpLeg
  {
    OFFSET -8.2249 1.95398 -2.59336
    CHANNELS 3 Zrotation Xrotation Yrotation
    JOINT RightLeg
    {
      OFFSET 43.5653 0 0
      CHANNELS 3 Zrotation Xrotation Yrotation
      JOINT RightFoot
      {
        OFFSET 40.6238 0 0
        CHANNELS 3 Zrotation Xrotation Yrotation
        JOINT RightToeBase
        {
          OFFSET 12.7242 0 0
          CHANNELS 3 Zrotation Xrotation Yrotation
          End Site
          {
            OFFSET 0 0 0
          }
        }
      }
    }
  }
  JOINT Spine
  {
    OFFSET 0.165834 0.87714 6.61349
    CHANNELS 3 Zrotation Xrotation Yrotation
    JOINT Spine1
    {
      OFFSET 7.38962 1.71661e-005 0
      CHANNELS 3 Zrotation Xrotation Yrotation
      JOINT Spine2
      {
        OFFSET 11.9445 1.14441e-005 0
        CHANNELS 3 Zrotation Xrotation Yrotation
        JOINT Spine3
        {
          OFFSET 14.7254 4.19617e-005 0
          CHANNELS 3 Zrotation Xrotation Yrotation
          JOINT Spine4
          {
            OFFSET 10.9679 0 0
            CHANNELS 3 Zrotation Xrotation Yrotation
            JOINT RightShoulder
            {
              OFFSET 2.46616 -1.6653 3.69651
              CHANNELS 3 Zrotation Xrotation Yrotation
              JOINT RightArm
              {
                OFFSET 13.0012 0 0
                CHANNELS 3 Zrotation Xrotation Yrotation
                JOINT RightForeArm
                {
                  OFFSET 28.7848 1.52588e-005 0
                  CHANNELS 3 Zrotation Xrotation Yrotation
                  JOINT RightHand
                  {
                    OFFSET 26.5688 1.52588e-005 0
                    CHANNELS 3 Zrotation Xrotation Yrotation
                    End Site
                    {
                      OFFSET 0 0 0
                    }
                  }
                }
              }
            }
            JOINT LeftShoulder
            {
              OFFSET 2.38034 -1.29275 -3.75231
              CHANNELS 3 Zrotation Xrotation Yrotation
              JOINT LeftArm
              {
                OFFSET 16.3182 6.10352e-005 0
                CHANNELS 3 Zrotation Xrotation Yrotation
                JOINT LeftForeArm
                {
                  OFFSET 27.0901 0 0
                  CHANNELS 3 Zrotation Xrotation Yrotation
                  JOINT LeftHand
                  {
                    OFFSET 24.5451 1.52588e-005 0
                    CHANNELS 3 Zrotation Xrotation Yrotation
                    End Site
                    {
                      OFFSET 0 0 0
                    }
                  }
                }
              }
            }
            JOINT Neck
            {
              OFFSET 5.0226 -0.0266342 0
              CHANNELS 3 Zrotation Xrotation Yrotation
              JOINT Head
              {
                OFFSET 6.69363 2.86102e-005 0
                CHANNELS 3 Zrotation Xrotation Yrotation
                End Site
                {
                  OFFSET 0 0 0
                }
              }
            }
          }
        }
      }
    }
  }
}
MOTION
Frames:	8
Frame Time:	0.0333333
-138.541 73.6865 -110.57 58.5174 -41.2111 63.448 -175.804 67.6499 76.7483 -63.6655 -23.6403 -8.45038 76.7618 8.90253 4.0987 28.7808 5.28218e-006 -3.27847e-006 -164.898 73.0228 68.7208 -72.4448 17.7937 0.112392 67.3314 -8.95162 -4.8365 28.7808 1.45243e-005 2.64114e-005 -4.26954 9.9562 -86.4489 6.71425 -0.907087 -0.919734 -4.95666 -0.946683 -0.878926 -27.4905 -0.588754 -1.14981 -7.47782 -0.588749 -1.1498 75.2737 -30.4866 -134.006 26.3438 22.857 -53.8996 24.9193 -8.67118 -107.517 1.51775 -0.523489 -31.3313 -103.591 -40.2875 54.4108 -19.6039 -11.5459 -65.3625 -19.51 -1.51627 -91.6872 7.00124 -1.88166 -25.6476 -63.3715 -2.16833 4.24507 36.0635 0.297939 1.4533 
-139.982 72.6558 -110.547 55.544 -38.9932 61.2454 -174.351 72.2829 75.5655 -65.2274 -22.6355 -8.66017 76.6194 8.14993 3.76967 28.7808 5.28218e-006 -3.27847e-006 -159.438 77.3597 63.2741 -73.9717 18.141 0.0972373 67.9892 -10.0315 -5.35605 28.7808 1.45243e-005 2.64114e-005 -4.82707 9.92894 -86.3864 6.73588 -1.07886 -0.758184 -4.93481 -1.11119 -0.709969 -27.4704 -0.801137 -1.04737 -7.45775 -0.801146 -1.04738 71.4278 -34.6794 -137.48 26.0359 20.2527 -51.5175 17.953 -7.71123 -110.582 3.6929 -0.944073 -29.0661 -107.663 -45.431 50.8919 -19.6807 -11.1658 -57.6899 -8.87103 0.275929 -99.5105 1.28577 -0.355222 -12.6347 -70.6117 -2.79241 4.698 43.7051 0.601014 1.91785 
-141.139 71.637 -110.34 52.1609 -36.8961 58.7649 -171.825 76.952 73.9169 -67.1976 -22.1087 -9.96014 76.8315 7.2711 3.36876 28.7808 5.28218e-006 -3.27847e-006 -150.813 81.4121 54.7778 -74.7778 19.2034 0.143811 69.8165 -10.1781 -5.2704 28.7808 1.45243e-005 2.64114e-005 -5.34609 9.7812 -86.3713 7.01098 -1.16106 -0.581858 -4.65954 -1.18554 -0.530203 -27.1966 -0.932517 -0.90393 -7.18392 -0.932529 -0.903926 66.4692 -38.8938 -142.207 25.3279 15.5502 -50.9577 11.57 -6.05762 -112.775 2.82517 -0.934787 -36.0431 -112.386 -51.2214 47.2359 -19.3047 -8.96281 -52.3227 -14.6212 3.92395 -109.88 -2.23118 0.0242987 2.38348 -77.6937 -3.89887 4.68781 49.6511 -0.0829124 1.70067 
-141.958 70.6136 -110.046 48.6152 -34.1615 56.3495 -166.401 81.8149 68.8737 -68.9042 -21.6506 -11.0472 77.3549 6.39849 2.96395 28.7808 5.28218e-006 -3.27847e-006 -111.363 85.1649 15.096 -77.3364 19.1701 0.0794844 68.6763 -11.6105 -6.11465 28.7808 1.45243e-005 2.64114e-005 -5.91068 9.50563 -86.4795 7.54831 -1.31715 -0.46413 -4.12204 -1.33629 -0.405707 -26.6606 -1.11677 -0.838574 -6.64798 -1.11676 -0.838559 58.127 -46.0642 -148.934 24.8182 11.4616 -47.045 10.7156 -8.4941 -121.59 11.341 -1.37846 -17.5792 -117.097 -56.7143 43.8863 -19.4125 -5.50004 -50.3512 -8.04788 0.919173 -105.257 -10.2842 1.68804 -30.6563 -83.0942 -5.0928 5.74985 53.4468 -0.944432 0.200727 
-142.506 69.6387 -109.666 46.5477 -32.0055 55.1651 -152.966 85.4216 55.2816 -70.7572 -20.9772 -10.9145 77.6276 5.73253 2.66518 28.7808 5.28218e-006 -3.27847e-006 -67.3974 85.0092 -29.0229 -79.0453 20.266 0.107543 69.5585 -11.5574 -5.99466 28.7808 1.45243e-005 2.64114e-005 -6.4488 9.36795 -86.5028 7.79936 -1.51962 -0.385601 -3.87074 -1.53508 -0.318327 -26.4112 -1.33346 -0.824539 -6.39857 -1.33345 -0.824533 52.7319 -49.9812 -153.203 24.1906 7.93822 -45.0985 11.5822 -9.24777 -122.233 11.8938 -1.3385 -16.9982 -120.071 -60.4706 42.1067 -19.395 -3.54867 -48.3328 -4.59685 0.213619 -106.378 -11.7521 2.73061 -37.865 -86.7682 -6.00184 6.87528 53.3936 -1.08102 -0.537393 
-142.968 68.5255 -109.297 44.9635 -30.4168 54.5833 -117.604 87.5799 19.5557 -72.007 -20.8001 -10.0858 79.168 6.86378 3.07714 28.7808 5.28218e-006 -3.27847e-006 -41.5377 83.3686 -54.7886 -80.7862 21.3466 0.13552 70.9441 -10.5741 -5.36198 28.7808 1.45243e-005 2.64114e-005 -6.84114 9.30112 -86.5749 7.92016 -1.72637 -0.335235 -3.74966 -1.73943 -0.258909 -26.2922 -1.5458 -0.838693 -6.27955 -1.54579 -0.838696 56.2711 -45.2568 -151.932 25.1625 11.0508 -35.6053 14.1366 -12.7338 -126.364 8.29402 -0.923893 -16.5754 -122.546 -63.9474 40.8999 -19.2442 -2.09555 -46.1358 -2.92338 -0.00329818 -109.361 -13.1071 3.05165 -36.9187 -88.926 -7.15769 8.25575 52.8982 -1.57464 -1.71615 
-143.308 67.4994 -108.974 44.2454 -29.7428 54.2718 -66.9896 87.4854 -31.0192 -73.9454 -20.7595 -9.73855 80.2013 6.83791 3.02122 28.7808 5.28218e-006 -3.27847e-006 -29.9106 81.7764 -66.3083 -82.7401 21.8212 0.116882 71.6028 -11.0248 -5.5215 28.7808 1.45243e-005 2.64114e-005 -7.32572 9.3233 -86.4285 7.83826 -1.85981 -0.214023 -3.83135 -1.86744 -0.131939 -26.3758 -1.70948 -0.76323 -6.36309 -1.70949 -0.763238 52.3836 -47.55 -155.304 24.9492 9.64352 -34.7934 14.8972 -13.9352 -127.587 10.9817 -1.03269 -14.9477 -124.299 -66.4698 40.1222 -19.0949 -1.29343 -44.9133 -2.9952 0.168581 -111.452 -15.2653 3.61321 -36.3032 -90.167 -8.02845 9.4735 52.4489 -1.57916 -2.25953 
-143.527 66.6641 -108.728 43.1308 -29.0124 53.5609 -37.4362 86.1068 -60.5644 -75.4664 -21.2126 -9.70493 81.1013 6.67013 2.92329 28.7808 5.28218e-006 -3.27847e-006 -22.7668 79.9389 -73.4167 -84.089 21.8796 0.0857684 72.4275 -10.8371 -5.35289 28.7808 1.45243e-005 2.64114e-005 -7.70808 9.2932 -86.3674 7.88082 -1.99086 -0.0376057 -3.7886 -1.99058 0.0501028 -26.3351 -1.88748 -0.634413 -6.32242 -1.88749 -0.634418 50.5504 -47.8946 -157.342 24.8204 8.64049 -33.786 14.9445 -14.3142 -128.237 11.721 -1.2256 -16.1336 -124.239 -67.5537 40.7328 -18.8617 -0.394209 -44.5631 -5.43891 1.22029 -113.02 -15.9195 3.76997 -36.0513 -90.7359 -8.56787 10.8365 52.1698 -1.38373 -3.12694 
